<mxfile host="app.diagrams.net" modified="2023-08-07T07:45:18.298Z" agent="Mozilla/5.0 (Windows NT 10.0; Win64; x64) AppleWebKit/537.36 (KHTML, like Gecko) Chrome/115.0.0.0 Safari/537.36" etag="XhDB7lXQMJWT-VsRqSPX" version="21.6.6" type="device">
  <diagram name="페이지-1" id="U7jxarVcp_38xqMJj9Ed">
    <mxGraphModel dx="2261" dy="782" grid="1" gridSize="10" guides="1" tooltips="1" connect="1" arrows="1" fold="1" page="1" pageScale="1" pageWidth="827" pageHeight="1169" math="0" shadow="0">
      <root>
        <mxCell id="0" />
        <mxCell id="1" parent="0" />
        <mxCell id="rOeCQw_Psq-g29SYvuHi-1" value="&lt;font style=&quot;font-size: 15px;&quot;&gt;&lt;font style=&quot;font-size: 15px;&quot;&gt;board&lt;/font&gt;List.jsp&lt;/font&gt;" style="rounded=0;whiteSpace=wrap;html=1;fillColor=#f8cecc;strokeColor=#b85450;" vertex="1" parent="1">
          <mxGeometry x="-50" y="250" width="150" height="60" as="geometry" />
        </mxCell>
        <mxCell id="rOeCQw_Psq-g29SYvuHi-2" value="&lt;span style=&quot;font-size: 15px;&quot;&gt;addBoard.jsp&lt;/span&gt;" style="rounded=0;whiteSpace=wrap;html=1;fillColor=#fff2cc;strokeColor=#d6b656;" vertex="1" parent="1">
          <mxGeometry x="220" y="60" width="150" height="60" as="geometry" />
        </mxCell>
        <mxCell id="rOeCQw_Psq-g29SYvuHi-3" value="&lt;span style=&quot;font-size: 15px;&quot;&gt;addBoardpro.jsp&lt;/span&gt;" style="rounded=0;whiteSpace=wrap;html=1;fillColor=#fff2cc;strokeColor=#d6b656;" vertex="1" parent="1">
          <mxGeometry x="430" y="60" width="156" height="60" as="geometry" />
        </mxCell>
        <mxCell id="rOeCQw_Psq-g29SYvuHi-4" value="&lt;span style=&quot;font-size: 14px;&quot;&gt;maria&lt;br&gt;db&lt;/span&gt;" style="shape=cylinder3;whiteSpace=wrap;html=1;boundedLbl=1;backgroundOutline=1;size=15;fillColor=#f8cecc;strokeColor=#b85450;" vertex="1" parent="1">
          <mxGeometry x="880" y="190" width="80" height="180" as="geometry" />
        </mxCell>
        <mxCell id="rOeCQw_Psq-g29SYvuHi-5" value="" style="endArrow=classic;html=1;rounded=0;exitX=1;exitY=0.5;exitDx=0;exitDy=0;entryX=0;entryY=0.5;entryDx=0;entryDy=0;" edge="1" parent="1" source="rOeCQw_Psq-g29SYvuHi-1" target="rOeCQw_Psq-g29SYvuHi-2">
          <mxGeometry width="50" height="50" relative="1" as="geometry">
            <mxPoint x="390" y="420" as="sourcePoint" />
            <mxPoint x="440" y="370" as="targetPoint" />
          </mxGeometry>
        </mxCell>
        <mxCell id="rOeCQw_Psq-g29SYvuHi-6" value="" style="endArrow=classic;html=1;rounded=0;exitX=1;exitY=0.5;exitDx=0;exitDy=0;entryX=0;entryY=0.5;entryDx=0;entryDy=0;" edge="1" parent="1" source="rOeCQw_Psq-g29SYvuHi-2" target="rOeCQw_Psq-g29SYvuHi-3">
          <mxGeometry width="50" height="50" relative="1" as="geometry">
            <mxPoint x="390" y="420" as="sourcePoint" />
            <mxPoint x="440" y="370" as="targetPoint" />
          </mxGeometry>
        </mxCell>
        <mxCell id="rOeCQw_Psq-g29SYvuHi-7" value="" style="endArrow=classic;html=1;rounded=0;exitX=1;exitY=0.5;exitDx=0;exitDy=0;entryX=0;entryY=0;entryDx=0;entryDy=52.5;entryPerimeter=0;" edge="1" parent="1" source="rOeCQw_Psq-g29SYvuHi-3" target="rOeCQw_Psq-g29SYvuHi-4">
          <mxGeometry width="50" height="50" relative="1" as="geometry">
            <mxPoint x="390" y="420" as="sourcePoint" />
            <mxPoint x="440" y="370" as="targetPoint" />
          </mxGeometry>
        </mxCell>
        <mxCell id="rOeCQw_Psq-g29SYvuHi-8" value="&lt;font style=&quot;font-size: 14px;&quot;&gt;title&lt;br&gt;content&lt;br&gt;author&lt;/font&gt;" style="text;html=1;strokeColor=none;fillColor=none;align=center;verticalAlign=middle;whiteSpace=wrap;rounded=0;" vertex="1" parent="1">
          <mxGeometry x="350" y="20" width="110" height="30" as="geometry" />
        </mxCell>
        <mxCell id="rOeCQw_Psq-g29SYvuHi-9" value="&lt;font style=&quot;font-size: 14px;&quot;&gt;title&lt;br&gt;content&lt;br&gt;author&lt;/font&gt;" style="text;html=1;strokeColor=none;fillColor=none;align=center;verticalAlign=middle;whiteSpace=wrap;rounded=0;rotation=0;" vertex="1" parent="1">
          <mxGeometry x="720" y="130" width="110" height="30" as="geometry" />
        </mxCell>
        <mxCell id="rOeCQw_Psq-g29SYvuHi-11" value="&lt;span style=&quot;font-size: 15px;&quot;&gt;getBoard.jsp&lt;/span&gt;" style="rounded=0;whiteSpace=wrap;html=1;fillColor=#dae8fc;strokeColor=#6c8ebf;" vertex="1" parent="1">
          <mxGeometry x="220" y="250" width="150" height="60" as="geometry" />
        </mxCell>
        <mxCell id="rOeCQw_Psq-g29SYvuHi-12" value="" style="endArrow=classic;html=1;rounded=0;exitX=1;exitY=0.5;exitDx=0;exitDy=0;entryX=0;entryY=0.5;entryDx=0;entryDy=0;" edge="1" parent="1" source="rOeCQw_Psq-g29SYvuHi-1" target="rOeCQw_Psq-g29SYvuHi-11">
          <mxGeometry width="50" height="50" relative="1" as="geometry">
            <mxPoint x="390" y="310" as="sourcePoint" />
            <mxPoint x="440" y="260" as="targetPoint" />
          </mxGeometry>
        </mxCell>
        <mxCell id="rOeCQw_Psq-g29SYvuHi-20" style="edgeStyle=orthogonalEdgeStyle;rounded=0;orthogonalLoop=1;jettySize=auto;html=1;entryX=0;entryY=0.5;entryDx=0;entryDy=0;" edge="1" parent="1" source="rOeCQw_Psq-g29SYvuHi-13" target="rOeCQw_Psq-g29SYvuHi-19">
          <mxGeometry relative="1" as="geometry" />
        </mxCell>
        <mxCell id="rOeCQw_Psq-g29SYvuHi-13" value="&lt;span style=&quot;font-size: 15px;&quot;&gt;updateBoard.jsp&lt;/span&gt;" style="rounded=0;whiteSpace=wrap;html=1;fillColor=#e1d5e7;strokeColor=#9673a6;" vertex="1" parent="1">
          <mxGeometry x="433" y="250" width="150" height="60" as="geometry" />
        </mxCell>
        <mxCell id="rOeCQw_Psq-g29SYvuHi-14" value="&lt;span style=&quot;font-size: 15px;&quot;&gt;deleteBoardpro.jsp&lt;/span&gt;" style="rounded=0;whiteSpace=wrap;html=1;fillColor=#d5e8d4;strokeColor=#82b366;" vertex="1" parent="1">
          <mxGeometry x="433" y="370" width="150" height="60" as="geometry" />
        </mxCell>
        <mxCell id="rOeCQw_Psq-g29SYvuHi-15" value="" style="endArrow=classic;html=1;rounded=0;exitX=1;exitY=0.5;exitDx=0;exitDy=0;entryX=0;entryY=0.5;entryDx=0;entryDy=0;" edge="1" parent="1" source="rOeCQw_Psq-g29SYvuHi-11" target="rOeCQw_Psq-g29SYvuHi-13">
          <mxGeometry width="50" height="50" relative="1" as="geometry">
            <mxPoint x="390" y="310" as="sourcePoint" />
            <mxPoint x="430" y="280" as="targetPoint" />
          </mxGeometry>
        </mxCell>
        <mxCell id="rOeCQw_Psq-g29SYvuHi-16" value="" style="endArrow=classic;html=1;rounded=0;exitX=1;exitY=0.5;exitDx=0;exitDy=0;entryX=0;entryY=0.5;entryDx=0;entryDy=0;" edge="1" parent="1" source="rOeCQw_Psq-g29SYvuHi-11" target="rOeCQw_Psq-g29SYvuHi-14">
          <mxGeometry width="50" height="50" relative="1" as="geometry">
            <mxPoint x="390" y="310" as="sourcePoint" />
            <mxPoint x="440" y="260" as="targetPoint" />
          </mxGeometry>
        </mxCell>
        <mxCell id="rOeCQw_Psq-g29SYvuHi-18" value="" style="endArrow=classic;html=1;rounded=0;entryX=0;entryY=0;entryDx=0;entryDy=127.5;entryPerimeter=0;exitX=1;exitY=0.5;exitDx=0;exitDy=0;" edge="1" parent="1" source="rOeCQw_Psq-g29SYvuHi-14" target="rOeCQw_Psq-g29SYvuHi-4">
          <mxGeometry width="50" height="50" relative="1" as="geometry">
            <mxPoint x="593" y="290" as="sourcePoint" />
            <mxPoint x="730" y="253" as="targetPoint" />
          </mxGeometry>
        </mxCell>
        <mxCell id="rOeCQw_Psq-g29SYvuHi-21" style="edgeStyle=orthogonalEdgeStyle;rounded=0;orthogonalLoop=1;jettySize=auto;html=1;entryX=0;entryY=0.5;entryDx=0;entryDy=0;entryPerimeter=0;" edge="1" parent="1" source="rOeCQw_Psq-g29SYvuHi-19" target="rOeCQw_Psq-g29SYvuHi-4">
          <mxGeometry relative="1" as="geometry" />
        </mxCell>
        <mxCell id="rOeCQw_Psq-g29SYvuHi-19" value="&lt;span style=&quot;font-size: 15px;&quot;&gt;updateBoardpro.jsp&lt;/span&gt;" style="rounded=0;whiteSpace=wrap;html=1;fillColor=#e1d5e7;strokeColor=#9673a6;" vertex="1" parent="1">
          <mxGeometry x="640" y="250" width="150" height="60" as="geometry" />
        </mxCell>
        <mxCell id="rOeCQw_Psq-g29SYvuHi-22" value="&lt;font style=&quot;font-size: 14px;&quot;&gt;bno&lt;br&gt;title&lt;br&gt;author&lt;br&gt;resdate&lt;br&gt;&lt;/font&gt;" style="text;html=1;strokeColor=none;fillColor=none;align=center;verticalAlign=middle;whiteSpace=wrap;rounded=0;rotation=0;" vertex="1" parent="1">
          <mxGeometry x="330" y="360" width="110" height="30" as="geometry" />
        </mxCell>
        <mxCell id="rOeCQw_Psq-g29SYvuHi-23" value="&lt;font style=&quot;font-size: 14px;&quot;&gt;bno&lt;br&gt;title&lt;br&gt;author&lt;br&gt;resdate&lt;br&gt;&lt;/font&gt;" style="text;html=1;strokeColor=none;fillColor=none;align=center;verticalAlign=middle;whiteSpace=wrap;rounded=0;rotation=0;" vertex="1" parent="1">
          <mxGeometry x="350" y="200" width="110" height="30" as="geometry" />
        </mxCell>
        <mxCell id="rOeCQw_Psq-g29SYvuHi-24" value="&lt;font style=&quot;font-size: 14px;&quot;&gt;bno&lt;br&gt;title&lt;br&gt;content&lt;br&gt;author&lt;br&gt;&lt;/font&gt;" style="text;html=1;strokeColor=none;fillColor=none;align=center;verticalAlign=middle;whiteSpace=wrap;rounded=0;rotation=0;" vertex="1" parent="1">
          <mxGeometry x="560" y="200" width="110" height="30" as="geometry" />
        </mxCell>
        <mxCell id="rOeCQw_Psq-g29SYvuHi-25" value="&lt;font style=&quot;font-size: 14px;&quot;&gt;bno&lt;br&gt;title&lt;br&gt;content&lt;br&gt;&lt;/font&gt;" style="text;html=1;strokeColor=none;fillColor=none;align=center;verticalAlign=middle;whiteSpace=wrap;rounded=0;rotation=0;" vertex="1" parent="1">
          <mxGeometry x="770" y="240" width="110" height="30" as="geometry" />
        </mxCell>
        <mxCell id="rOeCQw_Psq-g29SYvuHi-26" value="&lt;font style=&quot;font-size: 14px;&quot;&gt;bno&lt;br&gt;&lt;/font&gt;" style="text;html=1;strokeColor=none;fillColor=none;align=center;verticalAlign=middle;whiteSpace=wrap;rounded=0;rotation=0;" vertex="1" parent="1">
          <mxGeometry x="670" y="360" width="110" height="30" as="geometry" />
        </mxCell>
        <mxCell id="rOeCQw_Psq-g29SYvuHi-28" value="" style="endArrow=classic;html=1;rounded=0;exitX=0.855;exitY=1;exitDx=0;exitDy=-4.35;exitPerimeter=0;entryX=0.5;entryY=1;entryDx=0;entryDy=0;" edge="1" parent="1" source="rOeCQw_Psq-g29SYvuHi-4" target="rOeCQw_Psq-g29SYvuHi-1">
          <mxGeometry width="50" height="50" relative="1" as="geometry">
            <mxPoint x="390" y="210" as="sourcePoint" />
            <mxPoint x="440" y="160" as="targetPoint" />
            <Array as="points">
              <mxPoint x="950" y="560" />
              <mxPoint x="25" y="560" />
            </Array>
          </mxGeometry>
        </mxCell>
        <mxCell id="rOeCQw_Psq-g29SYvuHi-29" value="" style="endArrow=classic;html=1;rounded=0;exitX=0.145;exitY=1;exitDx=0;exitDy=-4.35;exitPerimeter=0;entryX=0.5;entryY=1;entryDx=0;entryDy=0;" edge="1" parent="1" source="rOeCQw_Psq-g29SYvuHi-4" target="rOeCQw_Psq-g29SYvuHi-11">
          <mxGeometry width="50" height="50" relative="1" as="geometry">
            <mxPoint x="390" y="210" as="sourcePoint" />
            <mxPoint x="440" y="160" as="targetPoint" />
            <Array as="points">
              <mxPoint x="890" y="520" />
              <mxPoint x="295" y="520" />
            </Array>
          </mxGeometry>
        </mxCell>
        <mxCell id="rOeCQw_Psq-g29SYvuHi-30" value="&lt;font style=&quot;font-size: 14px;&quot;&gt;bno&lt;br&gt;title&lt;br&gt;author&lt;br&gt;content&lt;br&gt;resdate&lt;br&gt;cnt&lt;br&gt;&lt;/font&gt;" style="text;html=1;strokeColor=none;fillColor=none;align=center;verticalAlign=middle;whiteSpace=wrap;rounded=0;rotation=0;" vertex="1" parent="1">
          <mxGeometry x="210" y="390" width="110" height="110" as="geometry" />
        </mxCell>
        <mxCell id="rOeCQw_Psq-g29SYvuHi-31" value="&lt;font style=&quot;font-size: 14px;&quot;&gt;bno&lt;br&gt;&lt;/font&gt;" style="text;html=1;strokeColor=none;fillColor=none;align=center;verticalAlign=middle;whiteSpace=wrap;rounded=0;rotation=0;" vertex="1" parent="1">
          <mxGeometry x="100" y="280" width="110" height="30" as="geometry" />
        </mxCell>
        <mxCell id="rOeCQw_Psq-g29SYvuHi-32" value="&lt;font style=&quot;font-size: 14px;&quot;&gt;bno&lt;br&gt;&lt;/font&gt;" style="text;html=1;strokeColor=none;fillColor=none;align=center;verticalAlign=middle;whiteSpace=wrap;rounded=0;rotation=0;" vertex="1" parent="1">
          <mxGeometry x="90" y="140" width="110" height="30" as="geometry" />
        </mxCell>
        <mxCell id="rOeCQw_Psq-g29SYvuHi-33" value="&lt;font style=&quot;font-size: 14px;&quot;&gt;bno&lt;br&gt;title&lt;br&gt;author&lt;br&gt;content&lt;br&gt;resdate&lt;br&gt;cnt&lt;br&gt;&lt;/font&gt;" style="text;html=1;strokeColor=none;fillColor=none;align=center;verticalAlign=middle;whiteSpace=wrap;rounded=0;rotation=0;" vertex="1" parent="1">
          <mxGeometry x="10" y="450" width="110" height="110" as="geometry" />
        </mxCell>
      </root>
    </mxGraphModel>
  </diagram>
</mxfile>
